<?xml version="1.0" encoding="UTF-8"?>
<!DOCTYPE svg PUBLIC "-//W3C//DTD SVG 1.1//EN" "http://www.w3.org/Graphics/SVG/1.1/DTD/svg11.dtd">
<!-- Creator: CorelDRAW 2020 (64 Bit) -->
<svg xmlns="http://www.w3.org/2000/svg" xml:space="preserve" width="210mm" height="297mm" version="1.1" style="shape-rendering:geometricPrecision; text-rendering:geometricPrecision; image-rendering:optimizeQuality; fill-rule:evenodd; clip-rule:evenodd"
viewBox="0 0 21000 29700"
 xmlns:xlink="http://www.w3.org/1999/xlink"
 xmlns:xodm="http://www.corel.com/coreldraw/odm/2003">
 <defs>
  <style type="text/css">
   <![CDATA[
    .fil0 {fill:black}
   ]]>
  </style>
 </defs>
 <g id="Camada_x0020_1">
  <metadata id="CorelCorpID_0Corel-Layer"/>
  <path class="fil0" d="M805.02 23933.25c122.34,-479.85 480.54,-878.66 918.81,-1098.02 237.03,-118.68 505.64,-171.98 769.6,-143.9 122.15,12.95 242.04,53.45 345.67,119.1 79.31,50.23 178.78,133.56 179.88,235.69 1.21,114.37 178.75,114.51 177.53,0 -3,-280.88 -324.56,-452.9 -561.59,-509.16 -308.18,-73.17 -634.07,-14.26 -921.04,108.09 -514.97,219.53 -941.27,696.84 -1080.02,1241.03 -28.31,110.99 142.88,158.08 171.16,47.17l0 0z"/>
  <path class="fil0" d="M508.54 23269.89c31.97,237.84 63.99,475.75 95.98,713.63 9.84,73.2 103.92,75.85 148.33,39.2 199.4,-164.44 398.82,-328.9 598.24,-493.29 88.39,-72.89 -37.97,-197.74 -125.56,-125.56 -199.38,164.47 -398.79,328.9 -598.2,493.29 49.45,13.12 98.89,26.14 148.36,39.16 -31.99,-237.88 -63.99,-475.79 -95.96,-713.63 -6.48,-48.05 -67.37,-73.52 -109.18,-61.99 -51.31,14.08 -68.47,61.24 -62.01,109.19l0 0z"/>
  <path class="fil0" d="M2636.35 25260.29c-380.34,-379.83 -959.11,-431.19 -1451.5,-267.22 68.09,-83.97 136.15,-167.89 204.22,-251.85 30.46,-37.61 36.86,-88.72 0,-125.56 -31.54,-31.5 -95,-37.6 -125.52,0 -140.11,172.83 -280.26,345.62 -420.37,518.45 -42.63,52.59 -26.03,113.8 24.89,139.84 21.07,18.69 50.02,27.8 81.13,17.46 206.69,27.69 413.34,55.32 619.98,82.97 48.11,6.49 88.77,-45.22 88.77,-88.76 0,-53.23 -40.81,-82.33 -88.77,-88.72 -103.69,-13.9 -207.41,-27.73 -311.13,-41.66 436.35,-140.55 941.96,-90.74 1273.67,251.78 165.35,170.7 215.75,410.42 138.72,634.29 -64.13,186.3 -233.97,307.34 -406,385.62 -296.77,135.04 -647.48,160.97 -969.32,154.17 -114.55,-2.44 -114.29,175.08 0,177.48 412.61,8.78 883.12,-37.08 1233.16,-275.38 179.42,-122.1 309.2,-302.89 344.47,-519.25 43.17,-265.01 -47.92,-515.45 -236.4,-703.66z"/>
  <path class="fil0" d="M6450.25 25548.66c-248.88,24.97 -497.8,49.91 -746.69,74.96 -48.11,4.8 -88.72,36.73 -88.72,88.72 0,44.74 40.53,93.56 88.72,88.76 153.92,-15.48 307.77,-30.9 461.61,-46.35 -209.02,156.91 -437.3,289.84 -680.68,383.96 -264.83,102.45 -559.58,163.62 -842.96,116.63 -209.17,-34.75 -441.86,-122.73 -537.32,-326.88 -54.19,-115.89 -25.93,-255.87 18.45,-369.26 55.18,-140.9 163.23,-261.93 275.77,-359.9 60.53,-52.78 128.58,-96.66 199.77,-133.63 101.68,-52.6 11.89,-205.85 -89.57,-153.21 -268.25,139.03 -502.81,390.49 -585.78,684.7 -74.58,264.27 27.83,514.39 248.07,668.55 190.36,133.17 444.15,182.74 672.71,183.06 331.83,0.42 659.27,-109.15 953.07,-255.87 165.98,-82.91 323.32,-183.02 471.87,-294.53 -45.93,136.02 -91.86,272.06 -137.83,408.12 -36.69,108.76 134.76,154.98 171.2,47.2 77.97,-230.92 155.93,-461.78 233.9,-692.71 17.28,-51.22 -29.5,-118 -85.59,-112.32z"/>
  <path class="fil0" d="M6106.72 23414.95c4.27,17.6 2.22,39.09 -6.95,67.59 -0.53,1.73 -0.99,3.11 -1.34,4.27 -0.64,1.27 -1.48,2.89 -2.68,5.4 -3.71,7.72 -8.15,15.06 -12.56,22.44 -13.3,22.15 -12.28,19.05 -30.31,38.06 -102.66,108.58 -285.82,153.11 -430.6,113.91 -38.8,-10.51 -68.82,-26.53 -103.61,-50.87 -11.71,-8.19 -26.42,-23.32 -37.99,-35.42 -19.44,-20.39 -9.32,-8.11 -24.7,-31.04 -8.36,-12.53 -15.45,-25.86 -22.05,-39.34 -0.35,-0.63 -0.56,-1.16 -0.84,-1.69 -0.35,-1.13 -0.88,-2.47 -1.59,-4.3 -2.57,-6.89 -4.73,-13.9 -6.81,-20.96 -1.72,-5.79 -7.34,-35.95 -7.41,-32.35 -1.51,-15.24 -1.69,-30.51 -1.16,-45.82 0.18,-5.3 0.63,-10.62 1.16,-15.91 -0.7,8.64 1.73,-10.27 2.26,-13.09 3,-15.49 7.48,-30.59 12.38,-45.55 2.23,-6.74 4.8,-13.3 7.41,-19.89 -4.33,11.28 5.36,-10.76 6,-12.03 8.96,-18.31 19.72,-35.67 30.9,-52.74 30.66,-46.29 82.69,-95.43 136.49,-135.12 112.26,25.65 221.02,65.48 322.19,122.17 78.64,43.99 153.43,106.19 171.81,182.28zm364.03 -718.86c-281.45,10.69 -636.94,60.54 -898.6,222.93 -407.98,-69.33 -845.04,29.8 -1219.51,192.51 -32.78,14.18 -65.55,28.96 -98.15,44.38 51.51,-70.77 103.01,-141.43 154.52,-212.17 28.54,-39.16 6.77,-98.81 -31.82,-121.42 -44.91,-26.29 -93.03,-7.16 -121.43,31.85 -121.92,167.47 -243.87,334.83 -365.83,502.29 -44.2,60.64 17.68,126.65 76.63,133.56 222.39,25.96 444.78,51.93 667.2,77.93 48.16,5.64 88.76,-44.66 88.76,-88.76 0,-52.64 -40.74,-83.11 -88.76,-88.76 -123.93,-14.46 -247.82,-28.96 -371.75,-43.42 249.24,-134.03 531.17,-225.15 804.68,-259.3 104.21,-13.02 210.68,-16.82 316.3,-10.09 -46.21,53.41 -84.84,113.95 -113.7,182.67 -55.2,131.45 -35.42,290.69 51.4,403.61 126.23,164.15 324.98,214.95 523.31,183.73 172.58,-27.2 354.05,-135.22 421.01,-302.36 82.72,-206.52 -88.44,-380.72 -254.78,-473.89 -57,-31.93 -115.53,-58.74 -175.19,-81.39 169.37,-67.52 355.71,-97.68 534.43,-111.09 33.69,-2.54 67.52,-4.02 101.28,-5.36 114.12,-4.34 114.51,-181.82 0,-177.45z"/>
  <path class="fil0" d="M7387.23 20656.79c-0.81,0.56 -1.66,1.13 -2.5,1.73 -255.91,-12.38 -511.81,-24.76 -767.72,-37.08 -114.47,-5.54 -113.91,172.05 0,177.49 176.14,8.53 352.32,17.04 528.43,25.54 -121.6,87.55 -241.37,177.8 -361.46,267.19 -109.99,81.88 -226.31,126.4 -340.85,24.8 -93.06,-82.52 -129.65,-216.39 -185.46,-323.71 -62.51,-120.19 -165.98,-232.76 -307.62,-248.32 -163.05,-17.96 -311.22,93.81 -417.73,205.18 -214.31,224.12 -296.58,536.33 -460.65,793.43 -65.79,103.04 -157.94,206.87 -289.14,208.74 -123.08,1.66 -225.5,-108.73 -266.8,-215.37 -17.47,-45.12 -58.99,-75.85 -109.19,-62.02 -43.11,11.85 -79.48,64.03 -61.98,109.18 53.87,139.03 149.65,257.89 290.26,315.25 136.63,55.77 289.95,29.63 406.51,-58.71 234.81,-177.87 327.23,-496.81 463.58,-745.63 75.54,-137.9 172.55,-268.39 312.21,-346.21 133.64,-74.48 226.63,21.76 287.27,134.12 60.82,112.57 100.08,232.59 185.07,330.91 104.14,120.47 264.54,170.11 416.94,124.56 73.35,-21.9 133.28,-67.73 193.64,-112.64 61.39,-45.75 122.88,-91.3 184.54,-136.63 36.76,-27.06 73.52,-54.01 110.39,-80.89 -78.6,154.09 -157.2,308.19 -235.84,462.28 -51.89,101.7 101.25,191.59 153.29,89.61 130.17,-255.17 260.35,-510.37 390.52,-765.53 4.52,-8.89 7.44,-17.92 9.14,-26.92 26.25,-69.92 -46.96,-161.78 -124.85,-110.35z"/>
  <path class="fil0" d="M3346.97 27587.29c-270.64,-13.09 -541.27,-26.21 -811.91,-39.27 -114.44,-5.5 -113.91,172.05 0,177.56 184.22,8.89 368.41,17.74 552.6,26.63 -144.73,102.41 -286.46,209.27 -428.5,315 -110.47,82.23 -227.26,126.82 -342.27,24.83 -93.36,-82.79 -130.09,-217.1 -186.11,-324.76 -62.63,-120.51 -166.38,-233.37 -308.37,-249 -163.52,-17.99 -312.05,94.09 -418.83,205.78 -214.99,224.75 -297.54,537.99 -462.11,795.87 -66.06,103.54 -158.56,207.71 -290.34,209.55 -123.61,1.69 -226.42,-109.19 -267.89,-216.26 -17.47,-45.12 -58.96,-75.84 -109.19,-62.01 -43.12,11.88 -79.5,64.02 -61.99,109.22 53.96,139.34 150.01,258.51 291.02,316.05 136.99,55.92 290.68,29.7 407.57,-58.88 235.49,-178.4 328.23,-498.37 464.94,-747.96 75.79,-138.36 173.18,-269.31 313.33,-347.41 134.22,-74.76 227.68,21.8 288.61,134.62 60.98,112.95 100.32,233.29 185.64,331.96 104.42,120.68 265.2,170.57 417.96,124.95 73.57,-22.05 133.7,-68.01 194.2,-113.1 61.6,-45.79 123.3,-91.51 185.15,-137.02 47.3,-34.82 94.71,-69.49 142.3,-104.03 -74.74,146.58 -149.5,293.02 -224.21,439.56 -51.91,101.74 101.22,191.6 153.24,89.57 130.61,-256.01 261.19,-511.95 391.8,-767.92 31.25,-61.32 -7.44,-130.22 -76.64,-133.53z"/>
  <path class="fil0" d="M10981.3 23558.74c-149.65,-106.43 -299.34,-212.93 -448.99,-319.37 -93.51,-66.53 -182.03,87.49 -89.6,153.21 96.88,68.93 193.74,137.9 290.62,206.8 -104.59,11.29 -190.29,-28.89 -278.56,-109.75 -118.6,-108.65 -209.23,-244.82 -335.42,-345.72 -146.08,-116.74 -319.51,-155.64 -498.54,-91.93 -285.68,101.59 -517.1,339.97 -726.2,549.84 -112.04,112.42 -223.66,225.35 -345.08,327.76 -80.29,67.77 -187.29,141.29 -296.55,104.85 -116.59,-38.92 -153.17,-230.72 -163.72,-333.09 -16.62,-161.69 9.63,-325.48 34.96,-484.79 24.37,-152.86 51.68,-306.88 49.81,-462.21 -1.37,-112.58 -17.5,-236.61 -89.64,-327.24 -183.97,-231 -510.79,53.02 -642.73,201.4 -168.59,189.62 -293.3,418.68 -391.58,651.34 -93.02,220.23 -232.94,507.61 -144.5,748.94 39.02,106.58 210.61,60.5 171.17,-47.2 -47.48,-129.54 1.27,-274.53 44.24,-398.67 41.84,-120.94 91.09,-240.21 146.4,-355.46 115.61,-241.02 268.57,-502.92 499.01,-650.45 44.1,-28.23 94.68,-56.27 148.2,-55.92 23.64,0.14 40.95,21.73 52.91,51.54 43.26,107.95 31.86,237.84 20.92,350.49 -31.32,321.98 -136.84,647.17 -41.09,968.41 40.99,137.83 121.77,259.82 258.44,314.08 117.09,46.49 253.75,-2.12 354.65,-63.93 130.92,-80.29 243.41,-199 351.89,-306.39 112.86,-111.69 222.75,-226.2 340.89,-332.42 114.48,-102.83 239.29,-195.83 377.76,-263.95 38.91,-19.08 81,-31.46 123.54,-39.4 24.94,-4.73 75.39,-2.51 95.92,1.59 66.54,13.26 122.73,49.7 171.91,92.07 61,52.56 113.98,113.98 167.18,174.13 83.75,94.79 170.43,191.56 282.08,254.14 37.47,20.96 76.66,35.85 116.77,45.41 -28.14,19.01 -56.3,37.92 -84.52,56.72 -19.55,12.95 -39.16,25.83 -58.92,38.35 -15.51,9.84 -40.96,15.45 -8.64,8.08 -111.58,25.5 -64.28,196.6 47.17,171.13 33.59,-7.66 66.88,-35.88 94.82,-54.26 53.98,-35.52 107.39,-71.89 160.8,-108.3 80.97,-55.18 161.71,-110.7 242.22,-166.55 57.47,-39.83 56.26,-113.27 0,-153.28z"/>
  <path class="fil0" d="M10541.31 25134.39c0.04,0.17 0.04,0.42 0.07,0.67 4.56,-17.99 -2.15,-22.4 -0.07,-0.67z"/>
  <path class="fil0" d="M10638.61 25637.7c-17.39,-81.95 -34.19,-164.04 -50.63,-246.24 -12.38,-62.13 -24.48,-124.36 -35.56,-186.76 -3.49,-19.62 -6.7,-39.27 -9.66,-58.88 -0.49,-3.57 -1.1,-8.26 -1.38,-10.76 -2.74,10.93 -9.7,26.95 -25.43,45.23 74.3,-86.26 -50.7,-212.41 -125.52,-125.52 -25.44,29.52 -28.47,60.89 -25.3,94.05 -57.18,-82.8 -121.49,-160.13 -194.73,-228.64 -88.83,-83.04 -221.62,-180.51 -350.48,-165.34 -125.2,14.67 -187.19,123.19 -207.26,237.73 -53.55,305.68 81.38,609.21 62.12,916.06 -6.06,96.13 -43.88,286.77 -167.21,295.84 -124.74,9.17 -240.6,-123.19 -321.98,-199.71 -213.75,-200.84 -405.03,-426.4 -659.81,-578.24 -162.73,-96.98 -346.39,-135.6 -515.93,-33.19 -130.32,78.77 -218.2,209.23 -323.61,315.56 -20.81,20.99 -53.34,49.99 -66.28,59.65 -25.05,18.59 -66.82,40.85 -80.44,45.83 -66.7,24.16 -123.08,15.42 -197.06,-12.88 -107.1,-40.99 -153,130.74 -47.2,171.17 181.61,69.5 350.31,14.85 489.2,-111.9 59.8,-54.61 111.26,-117.9 165.42,-177.91 53.97,-59.76 102.3,-109.25 164.92,-145.31 30.16,-17.35 46.25,-22.57 87.21,-29.88 -7.9,1.34 31.67,-0.7 42.01,-0.31 20.68,0.7 33.62,4.05 58.88,10.83 128.7,34.74 246.7,130.59 346.29,215.33 120.9,102.84 229.65,219.18 342.37,330.59 104.18,102.94 216.04,221.3 351.79,281.59 103.05,45.75 220.1,51.96 316.65,-13.27 111.34,-75.11 162.6,-216.14 182.88,-343.25 45.94,-287.02 -61.59,-566 -64.35,-851.68 -0.49,-50.66 5.3,-186.76 44.14,-202.98 74.19,-30.91 195.19,84.66 245.78,133.59 116.98,113.31 209.12,256.01 283.38,404.92 -85.26,-38.67 -170.53,-77.4 -255.8,-116.1 -44.06,-20 -95.1,-13.02 -121.42,31.79 -22.54,38.52 -12.24,101.49 31.82,121.49 167.25,75.92 334.54,151.8 501.79,227.72 71.3,32.39 147.43,-19.75 130.39,-100.22z"/>
  <path class="fil0" d="M8218.09 27911.24c-91.09,5.26 -181.08,3 -267.65,-22.86 -29.53,-8.85 -52.63,-21.13 -72.67,-41.48 2.26,1.87 -2.86,-5.29 -6.35,-10.02 -0.18,-1.98 -5.86,-15.1 -6.21,-16.34 -2.96,-11.07 -1.02,-27.58 3.81,-48.08 23.32,-98.99 134.51,-159.95 219.07,-198.19 78.53,-35.45 168.7,-52.39 254.5,-49.11 61.28,2.37 150.67,33.87 157.79,99.95 8.86,82.65 -42.01,164.99 -86.71,230.15 -7.97,11.6 -16.26,23.03 -24.59,34.32 -57.04,10.87 -112.5,18.28 -170.99,21.66zm2093.53 -954.65c-24.06,-37.96 -73.94,-60.78 -116.49,-34.04 -18.98,4.44 -342.02,63.57 -491.35,83.15 -47.94,6.28 -88.76,35.63 -88.76,88.76 0,43.6 40.68,95.07 88.76,88.76 96.06,-12.63 192.12,-25.23 288.15,-37.89 -150.88,133.49 -337.29,231.7 -512.76,321.38 -274.6,140.3 -550.23,274.39 -846,362.09 45.83,-100.93 61.63,-209.02 15.52,-313.66 -50.12,-113.77 -192.44,-159.91 -306.1,-167.42 -223.13,-14.86 -513.93,105.3 -619.2,311.43 -49.81,97.37 -51.61,216.96 20.22,303.46 59.62,71.75 156.95,102.27 245.99,115.89 76.34,11.67 152.96,14.11 229.41,9.94 -23.74,25.37 -47.63,50.49 -71.12,75.61 -189.9,202.81 -378.14,406.75 -503.73,657.33 -63.32,126.43 -108.76,264.54 -111.16,406.96 -1.66,97.58 20.95,222.14 117.58,269.77 102.31,50.34 192.26,-102.69 89.57,-153.28 -31.61,-15.6 -28.82,-74.26 -29.63,-105.06 -2.05,-81.07 19.58,-159.88 46.53,-235.62 55.81,-156.78 155.5,-302.33 259.89,-430.42 106.08,-130.14 225.39,-248.96 338.63,-372.71 44.81,-48.93 90.73,-99.1 133.74,-151.49 67.77,-14.96 134.87,-32.8 200.9,-51.96 318.42,-92.39 615.81,-242.5 909.68,-393.56 124.11,-63.82 248,-132.96 362.69,-213.78 -8.22,15.77 -16.51,31.64 -24.98,47.34 -5.82,10.94 -31.4,47.38 -4.05,13.51 -30.38,37.57 -36.91,88.65 0,125.52 31.5,31.47 95.03,37.68 125.51,0 60.9,-75.32 98.43,-176.74 142.24,-262.36 42.02,-82.16 83.82,-164.43 125.49,-246.77 16.97,-33.55 10.4,-82.3 -15.17,-110.88z"/>
  <path class="fil0" d="M6483.03 28175.86c-254.36,218.37 -542.47,404.18 -855.28,526.98 -265.74,104.39 -563,169.05 -848.64,125.38 -208.56,-31.93 -445.52,-114.97 -550.86,-312.07 -135.96,-254.35 69.92,-558.13 249.59,-727.78 31.92,-30.2 65.86,-57.96 101.31,-83.57 -50.34,173.18 -100.75,346.32 -151.13,519.5 -32.06,110.17 139.25,156.88 171.17,47.2 73.28,-251.81 146.51,-503.59 219.82,-755.44 19.19,-66.11 -44.77,-125.73 -109.22,-109.18 -280.6,72.25 -561.24,144.57 -841.84,216.81 -110.8,28.47 -63.74,199.75 47.17,171.14 135.54,-34.86 271.07,-69.78 406.58,-104.67 -128.73,127.81 -229.98,283.74 -281.84,454.38 -80.18,263.73 14.33,517.59 231.32,678.53 187.43,138.92 442.1,190.99 671.05,195.86 326.11,6.99 650.84,-96.87 942.13,-235.65 262.4,-125.03 504.05,-292.88 724.18,-481.83 87,-74.72 -39.15,-199.67 -125.51,-125.59z"/>
  <path class="fil0" d="M10191.36 18352.9c33.72,23.08 70.66,56.74 92.42,86.37 11.75,16.01 21.31,33.45 29.88,51.37 -4.19,-8.79 11.4,48.57 9.25,31.62 7.94,63.01 -15.07,107.8 -56.27,153.45 -49.32,54.71 -117.27,94.39 -186.09,119.27 -154.09,55.6 -333.66,50.29 -456.81,-66.56 -8.61,-8.17 -16.55,-16.92 -24.31,-25.81 -2.22,-2.55 -3.78,-4.3 -4.9,-5.54 -0.64,-0.87 -1.34,-1.93 -2.44,-3.38 -12.91,-17.61 -24.09,-36.45 -34.25,-55.81 -3.07,-5.9 -5.93,-11.92 -8.68,-17.98 0.85,1.47 -7.45,-18.61 -9.17,-23.6 -7.9,-22.47 -13.83,-45.51 -18.56,-68.84 -0.84,-4.3 -3.28,-20.66 -4.06,-25.28 -0.88,-8.44 -1.58,-16.78 -2.11,-25.18 -1.66,-26.12 -1.13,-52.37 0.7,-78.45 0.32,-4.65 2.75,-24.98 3.07,-28.66 1.59,-9.93 3.39,-19.85 5.4,-29.7 5.82,-28.74 13.97,-56.95 23.42,-84.65 3.78,-11.17 8.01,-22.15 12.39,-33.07 0.17,-0.59 0.38,-1.03 0.6,-1.55 2.5,-5.79 5.11,-11.47 7.76,-17.22 7.94,-17.2 16.82,-33.87 26.03,-50.37 66.29,4.74 132.47,14.54 198.02,29.7 140.76,32.58 279.25,87.98 398.71,169.87zm1132.84 -1176.02c-515.41,65.05 -1062.04,179.84 -1496.59,481.08 -125.73,87.12 -240.35,192.78 -327.42,315.95 -87.38,-0.35 -175.29,6.54 -263.24,20.67 -364.59,58.63 -711.52,247.49 -991.66,487.72 47.06,-114.87 94.19,-229.72 141.25,-344.58 18.39,-44.89 -19.58,-97.53 -61.98,-109.18 -50.9,-14.02 -90.84,17.23 -109.18,61.95 -80.89,197.26 -161.72,394.46 -242.61,591.73 -21.3,52.02 32.39,115.89 85.58,112.34 236.72,-15.79 473.4,-31.55 710.08,-47.33 113.59,-7.55 114.3,-185.11 0,-177.53 -128.91,8.61 -257.81,17.23 -386.72,25.8 184.65,-157.89 408.41,-282.87 639.27,-362.83 123.05,-42.62 250.33,-69.77 378.71,-79.1 -28.26,67.24 -48.23,138.56 -58.14,213.84 -30.37,231.67 75.67,476.32 291.01,580.91 179.42,87.19 386.57,67.21 565,-10.44 155.33,-67.67 294.08,-205.95 304.03,-382.23 12.99,-230.79 -230.79,-380.76 -412.51,-459.37 -121.98,-52.79 -247.96,-87.96 -376.06,-106.63 93.88,-103.39 200.2,-181.66 320.22,-252.66 387.22,-228.97 849.63,-326.91 1290.96,-382.58 47.98,-6.07 88.72,-35.83 88.72,-88.75 0,-43.83 -40.64,-94.84 -88.72,-88.78z"/>
  <path class="fil0" d="M4275.66 17386.62c-244.54,98.63 -489.16,197.23 -733.74,295.87 -44.81,18.08 -75.9,58.46 -61.97,109.21 11.73,42.54 64.26,80.06 109.2,61.97 157.63,-63.56 315.25,-127.09 472.87,-190.68 -225.18,236.57 -454.06,469.7 -687.59,698.01 -152.88,149.38 -307.79,297.24 -469.95,436.6 -62.66,53.8 -109.89,93.01 -171.18,135.87 -21.19,14.78 -42.96,28.73 -65.67,41.07 -4.28,2.3 -8.66,4.47 -13.04,6.58 -33.81,12.74 -68.86,18.67 -104.81,19.98 -213.43,7.98 -308.1,-217.42 -385.7,-379.52 -87.87,-183.66 -162.83,-373.55 -264.34,-550.42 -92.93,-161.96 -213.98,-316.74 -393.22,-385.26 -198.68,-76 -424.04,22.39 -583.07,141.49 -444.36,332.76 -677.41,1025.67 -435.53,1541.71 48.56,103.6 201.54,13.4 153.29,-89.61 -198.01,-422.36 10.87,-986.88 345.8,-1277.19 80.69,-69.98 178.22,-124.79 281.33,-153 71.66,-19.64 147.81,-12.99 204.54,13.61 152.37,71.27 247.63,243.05 325.57,393.29 92.69,178.69 164.99,367.18 257.51,545.91 105.8,204.36 259.19,385.26 512.02,375.79 169.92,-6.31 297.33,-117.03 421.42,-220.38 160.07,-133.44 311.2,-277.75 460.81,-422.65 243.23,-235.58 481.03,-477.01 714.71,-722.16 -18.34,136.97 -36.69,273.99 -55.03,410.97 -6.42,48.13 45.26,88.74 88.76,88.74 53.27,0 82.37,-40.79 88.76,-88.74 33.55,-250.5 67.1,-500.99 100.57,-751.45 7.24,-53.95 -62.79,-105.59 -112.32,-85.61z"/>
  <path class="fil0" d="M12776.02 26318.91c-75.43,-243.03 -209.2,-466.23 -344.74,-679.84 -67.27,-106.01 -137.97,-210.01 -203.9,-316.9 118.64,53.2 237.28,106.47 355.91,159.64 44.18,19.82 95.04,13.19 121.43,-31.86 22.47,-38.28 12.31,-101.57 -31.86,-121.43 -230.56,-103.36 -461.18,-206.83 -691.76,-310.23 -54.6,-24.52 -140.58,2.61 -133.52,76.62 24.9,262.57 49.88,525.08 74.86,787.54 10.69,113 188.27,113.99 177.48,0 -16.08,-169.15 -32.14,-338.27 -48.23,-507.4 105.52,176.57 224.76,344.84 329.89,521.73 119.66,201.47 240.84,425.38 266.73,662.16 23.15,212.09 -70.13,411.83 -236.32,514.49 -139.8,86.43 -323.25,120.19 -490.12,159.78 -330.23,78.24 -811.03,166.44 -910.31,552.62 -58.31,226.91 39.13,477.8 167.78,662.09 154.35,221.16 378.32,390.53 625.69,494.74 221.41,93.21 469.13,131.41 704.68,72.85 111.05,-27.62 63.95,-198.79 -47.17,-171.2 -479.1,119.09 -1028.67,-225.6 -1227.63,-655.01 -44.06,-95.04 -67.21,-203.51 -60.33,-308.22 4.41,-66.22 37.5,-137.19 78.21,-183.73 108.84,-124.49 287.94,-180.72 449.34,-226.23 365.48,-102.94 812.51,-125.41 1033.67,-480.63 125.87,-202.24 108.06,-453.07 40.22,-671.58z"/>
  <path class="fil0" d="M13400.36 17657.85c-470.63,48.26 -929.46,187.07 -1303.19,485.45 -271.11,216.41 -465.71,512.15 -585.72,835.44 -85.62,230.74 -129.86,477.14 -143.19,722.43 -2.04,38.07 -3.6,76.56 -4.13,115.04 -55.49,-97.54 -112.04,-194.41 -172.44,-288.43 -61.66,-95.94 -215.37,-6.99 -153.32,89.61 118.26,183.9 221.58,378.92 331.37,568.03 35.31,60.8 116.52,53.74 153.32,0 128.17,-187.38 256.36,-374.76 384.59,-562.14 64.82,-94.77 -89.07,-183.42 -153.28,-89.57 -71.01,103.79 -142.06,207.63 -213.11,311.44 -0.03,-60.71 2.82,-121.51 6.81,-181.39 8.75,-131.57 20.35,-213.67 49.81,-347.75 30.52,-138.8 79.06,-288.35 131.69,-405.18 121.29,-269.3 300,-500.98 538.73,-676.92 328.05,-241.82 730.81,-357.43 1132.06,-398.53 48.12,-4.9 88.76,-36.66 88.76,-88.78 0,-44.62 -40.53,-93.67 -88.76,-88.75z"/>
  <path class="fil0" d="M7729.04 19586.69c-71.62,-246.6 -143.2,-493.23 -214.85,-739.86 -31.81,-109.67 -203.12,-62.95 -171.13,47.23 36.76,126.6 73.56,253.28 110.32,379.89 -351.19,-397.09 -802.5,-738.53 -1319,-861.38 -567.34,-134.95 -1159.27,121.06 -1530.14,555.69 -122.17,143.31 -218.66,304.38 -285.22,480.56 -70.95,187.59 -95.54,389.37 -119.67,587.25 -5.85,48.13 44.84,88.75 88.76,88.75 52.81,0 82.91,-40.76 88.76,-88.75 19.97,-163.68 44.06,-326.63 93.98,-484.27 47.77,-150.97 127.92,-292.05 225.14,-416.66 179.96,-230.52 424.29,-404.03 697.8,-505.77 254.95,-94.81 511.74,-98.42 772.79,-24.98 280.96,79 539.75,235.48 766.03,417.03 173.63,139.32 331.22,298.45 473.49,469.74 -140.65,-18.02 -281.3,-36.07 -421.92,-54.09 -48.12,-6.13 -88.76,45.06 -88.76,88.78 0,53.02 40.78,82.62 88.76,88.75 219.78,28.14 439.53,56.33 659.27,84.44 57.93,7.44 100.16,-62.15 85.59,-112.35z"/>
  <path class="fil0" d="M3371.07 20499.88c-99.55,-409.17 -495.18,-673.03 -875.04,-790.61 -479.31,-148.28 -1015.28,-47.23 -1444.46,199.06 -99.27,56.98 -9.87,210.36 89.56,153.3 511.15,-293.35 1152.14,-339.37 1661,-19.74 205.12,128.85 366.33,321.91 410.28,564.07 36.57,201.43 -26.24,423.22 -158.77,577.74 -178.08,207.54 -451.64,307.52 -710.71,367.56 -202.69,46.91 -411.24,68.3 -619.53,73.03 78.03,-43.96 156.1,-87.92 234.15,-131.87 99.72,-56.2 10.28,-209.52 -89.59,-153.32 -175.12,98.56 -350.18,197.24 -525.26,295.8 -58.98,33.27 -56.1,119.42 0,153.36 183.14,110.63 366.28,221.33 549.42,332.03 98.21,59.34 187.38,-94.16 89.59,-153.32 -90.86,-54.86 -181.69,-109.78 -272.52,-164.71 370.93,-6.28 749.46,-61.91 1086.51,-216.46 190.87,-87.49 362.91,-220.52 474.89,-399.91 125.32,-200.77 155.93,-458.15 100.48,-686.01z"/>
  <path class="fil0" d="M12828.23 22554.38c-58.91,116.03 -117.79,232.06 -176.71,348.05 -18.27,-237.84 -41.45,-476.21 -102.83,-706.93 -76.3,-286.7 -227.76,-547.3 -437.62,-756.71 -452.16,-451.24 -1110.48,-596.22 -1730.34,-550.12 -356.66,26.53 -703.06,137.55 -996.46,344.28 -149.58,105.34 -272.27,236.29 -379.73,383.68 -106.71,146.29 -196.21,317.43 -227.79,497.1 -19.72,112.07 152.37,155.93 172.19,43.14 49.01,-278.94 247.23,-554.07 466.97,-727.32 232.91,-183.59 508.96,-294.46 800.03,-343.82 289.54,-49.1 604.63,-38.24 891.79,20.47 303.99,62.12 592.91,201.78 824.94,408.3 214.81,191.35 362.72,439.17 441.18,714.76 58.95,207.01 81.14,422.6 97.61,637.61 -66.56,-134.19 -133.13,-268.42 -199.7,-402.69 -50.91,-102.7 -202.78,-10.66 -152.19,91.3 124.25,250.68 248.6,501.4 372.85,752.08 29.42,59.37 124.56,54.93 153.42,-1.97 112.33,-221.27 224.65,-442.56 337.01,-663.82 51.72,-101.99 -102.84,-189.44 -154.62,-87.39z"/>
 </g>
</svg>
